<svg id="Layer_1" data-name="Layer 1" xmlns="http://www.w3.org/2000/svg" viewBox="0 0 26.35 26.35"><defs><style>.cls-1{fill:#00c58f;}</style></defs><title>answer</title><g id="news"><g id="Group_354" data-name="Group 354"><g id="Group_353" data-name="Group 353"><path id="Path_2139" data-name="Path 2139" class="cls-1" d="M25.41,6.59H20.7V.94A.94.94,0,0,0,19.76,0H.94A.94.94,0,0,0,0,.94V22.59a3.76,3.76,0,0,0,3.77,3.76H22.59a3.76,3.76,0,0,0,3.76-3.76V7.53A.94.94,0,0,0,25.41,6.59ZM3.77,24.47a1.89,1.89,0,0,1-1.89-1.88V1.88H18.82v20.7a5.05,5.05,0,0,0,.07.68l0,.16a4.48,4.48,0,0,0,.2.62s0,0,0,0l.2.4Zm20.7-1.88a1.89,1.89,0,0,1-3.77,0V8.47h3.77V22.59Z"/></g></g><g id="Group_356" data-name="Group 356"><g id="Group_355" data-name="Group 355"><path id="Path_2140" data-name="Path 2140" class="cls-1" d="M13.18,4.71H7.53a.94.94,0,0,0,0,1.88h5.65a.94.94,0,0,0,0-1.88Z"/></g></g><g id="Group_358" data-name="Group 358"><g id="Group_357" data-name="Group 357"><path id="Path_2141" data-name="Path 2141" class="cls-1" d="M16,9.41H4.71a.94.94,0,1,0,0,1.88H16a.94.94,0,0,0,0-1.88Z"/></g></g><g id="Group_360" data-name="Group 360"><g id="Group_359" data-name="Group 359"><path id="Path_2142" data-name="Path 2142" class="cls-1" d="M16,13.18H4.71a.94.94,0,1,0,0,1.88H16a.94.94,0,0,0,0-1.88Z"/></g></g><g id="Group_362" data-name="Group 362"><g id="Group_361" data-name="Group 361"><path id="Path_2143" data-name="Path 2143" class="cls-1" d="M16,16.94H4.71a.94.94,0,1,0,0,1.88H16a.94.94,0,0,0,0-1.88Z"/></g></g><g id="Group_364" data-name="Group 364"><g id="Group_363" data-name="Group 363"><path id="Path_2144" data-name="Path 2144" class="cls-1" d="M16,20.7H4.71a.95.95,0,1,0,0,1.89H16a.94.94,0,0,0,.94-.94A1,1,0,0,0,16,20.7Z"/></g></g></g></svg>