<svg id="Layer_1" data-name="Layer 1" xmlns="http://www.w3.org/2000/svg" viewBox="0 0 16.38 23.4"><defs><style>.cls-1{fill:none;}.cls-2{fill:#00c58f;}</style></defs><title>Short-Bio</title><rect class="cls-1" x="-418" y="-199.87" width="834" height="261"/><path id="Path_2104" data-name="Path 2104" class="cls-2" d="M15.21,0h-14A1.15,1.15,0,0,0,0,1.13v21.1A1.15,1.15,0,0,0,1.13,23.4H11.86l4.52-4.52V1.17A1.15,1.15,0,0,0,15.25,0Zm.39,18.56-3.51,3.51V19.5a.37.37,0,0,1,.34-.39h2v-.78H12.48a1.15,1.15,0,0,0-1.17,1.13v3.16H1.17a.37.37,0,0,1-.39-.34V1.17A.37.37,0,0,1,1.12.78H15.21a.37.37,0,0,1,.39.34V18.56Z"/><path id="Path_2105" data-name="Path 2105" class="cls-2" d="M5.85,2.34h4.68v.78H5.85Z"/><path id="Path_2106" data-name="Path 2106" class="cls-2" d="M3.12,12.87H13.26v.78H3.12Z"/><path id="Path_2107" data-name="Path 2107" class="cls-2" d="M3.12,14.82H13.26v.78H3.12Z"/><path id="Path_2108" data-name="Path 2108" class="cls-2" d="M3.12,16.77H13.26v.78H3.12Z"/><path id="Path_2109" data-name="Path 2109" class="cls-2" d="M3.12,18.72H9.75v.78H3.12Z"/><path id="music-2" class="cls-2" d="M10.74,9.41a2.84,2.84,0,0,0,.37-1.23,1.67,1.67,0,0,0-.18-.85A2.39,2.39,0,0,0,10,6.42a2.72,2.72,0,0,1-.68-.58l0,0a1.08,1.08,0,0,1-.24-.43.27.27,0,0,0-.28-.23.27.27,0,0,0-.24.26V10a1.49,1.49,0,0,0-.77-.21,1.18,1.18,0,0,0-1.29,1,1.32,1.32,0,0,0,2.58,0v-3a1.86,1.86,0,0,1,1.2,1.41l-.1.14a.26.26,0,0,0,0,.36.27.27,0,0,0,.35,0,1.27,1.27,0,0,0,.18-.27Z"/></svg>