<svg id="Layer_1" data-name="Layer 1" xmlns="http://www.w3.org/2000/svg" viewBox="0 0 27.98 15.68"><defs><style>.cls-1{fill:none;}.cls-2{fill:#00c58f;}</style></defs><title>Beats-BMP</title><rect class="cls-1" x="-300.99" y="-210.88" width="834" height="261"/><path id="Path_2112" data-name="Path 2112" class="cls-2" d="M25.3,6.45a2.71,2.71,0,0,0-2.56,1.9h-2.6a.77.77,0,0,0-.7.46L18.39,11.1,16.45,6.53a.7.7,0,0,0-.73-.47.8.8,0,0,0-.7.5l-1.83,5.12L11.64.67a.77.77,0,0,0-.7-.66.75.75,0,0,0-.81.5l-3,8H5.29a2.63,2.63,0,0,0-2.6-2,2.68,2.68,0,1,0,2.48,3.64H7.65a.79.79,0,0,0,.74-.5L10.48,4,12.15,15a.74.74,0,0,0,.7.65.78.78,0,0,0,.82-.5L15.88,9l1.82,4.38a.77.77,0,0,0,1,.42.8.8,0,0,0,.41-.42L20.65,9.9h2.1a2.7,2.7,0,0,0,2.56,1.9,2.68,2.68,0,0,0,0-5.35h0ZM2.73,10.25A1.13,1.13,0,1,1,3.85,9.12h0a1.12,1.12,0,0,1-1.12,1.13Zm22.57,0a1.13,1.13,0,1,1,1.13-1.13h0a1.13,1.13,0,0,1-1.13,1.13Z"/></svg>