<svg id="Layer_1" data-name="Layer 1" xmlns="http://www.w3.org/2000/svg" viewBox="0 0 24.63 24.63"><defs><style>.cls-1{fill:#00c58f;}</style></defs><title>delivery</title><g id="Group_640" data-name="Group 640"><g id="calendar"><g id="Group_368" data-name="Group 368"><g id="Group_367" data-name="Group 367"><path id="Path_2150" data-name="Path 2150" class="cls-1" d="M21.74,1.92H20.59V0H18.66V1.92H6V0H4V1.92H2.89A2.9,2.9,0,0,0,0,4.81V21.74a2.89,2.89,0,0,0,2.89,2.89H21.74a2.89,2.89,0,0,0,2.89-2.89V4.81A2.9,2.9,0,0,0,21.74,1.92Zm1,19.82a1,1,0,0,1-1,1H2.89a1,1,0,0,1-1-1V9H22.7Zm0-14.62H1.92V4.81a1,1,0,0,1,1-1H4V5.77H6V3.85h12.7V5.77h1.92V3.85h1.15a1,1,0,0,1,1,1Z"/></g></g><g id="Group_370" data-name="Group 370"><g id="Group_369" data-name="Group 369"><rect id="Rectangle_628" data-name="Rectangle 628" class="cls-1" x="3.31" y="11.31" width="2" height="2"/></g></g><g id="Group_372" data-name="Group 372"><g id="Group_371" data-name="Group 371"><rect id="Rectangle_629" data-name="Rectangle 629" class="cls-1" x="7.31" y="11.31" width="2" height="2"/></g></g><g id="Group_374" data-name="Group 374"><g id="Group_373" data-name="Group 373"><rect id="Rectangle_630" data-name="Rectangle 630" class="cls-1" x="11.31" y="11.31" width="2" height="2"/></g></g><g id="Group_376" data-name="Group 376"><g id="Group_375" data-name="Group 375"><rect id="Rectangle_631" data-name="Rectangle 631" class="cls-1" x="15.31" y="11.31" width="2" height="2"/></g></g><g id="Group_378" data-name="Group 378"><g id="Group_377" data-name="Group 377"><rect id="Rectangle_632" data-name="Rectangle 632" class="cls-1" x="19.31" y="11.31" width="2" height="2"/></g></g><g id="Group_380" data-name="Group 380"><g id="Group_379" data-name="Group 379"><rect id="Rectangle_633" data-name="Rectangle 633" class="cls-1" x="3.31" y="14.31" width="2" height="2"/></g></g><g id="Group_382" data-name="Group 382"><g id="Group_381" data-name="Group 381"><rect id="Rectangle_634" data-name="Rectangle 634" class="cls-1" x="7.31" y="14.31" width="2" height="2"/></g></g><g id="Group_384" data-name="Group 384"><g id="Group_383" data-name="Group 383"><rect id="Rectangle_635" data-name="Rectangle 635" class="cls-1" x="11.31" y="14.31" width="2" height="2"/></g></g><g id="Group_386" data-name="Group 386"><g id="Group_385" data-name="Group 385"><rect id="Rectangle_636" data-name="Rectangle 636" class="cls-1" x="15.31" y="14.31" width="2" height="2"/></g></g><g id="Group_388" data-name="Group 388"><g id="Group_387" data-name="Group 387"><rect id="Rectangle_637" data-name="Rectangle 637" class="cls-1" x="3.31" y="18.31" width="2" height="3"/></g></g><g id="Group_390" data-name="Group 390"><g id="Group_389" data-name="Group 389"><rect id="Rectangle_638" data-name="Rectangle 638" class="cls-1" x="7.31" y="18.31" width="2" height="3"/></g></g><g id="Group_392" data-name="Group 392"><g id="Group_391" data-name="Group 391"><rect id="Rectangle_639" data-name="Rectangle 639" class="cls-1" x="11.31" y="18.31" width="2" height="3"/></g></g><g id="Group_394" data-name="Group 394"><g id="Group_393" data-name="Group 393"><rect id="Rectangle_640" data-name="Rectangle 640" class="cls-1" x="15.31" y="18.31" width="2" height="3"/></g></g><g id="Group_396" data-name="Group 396"><g id="Group_395" data-name="Group 395"><rect id="Rectangle_641" data-name="Rectangle 641" class="cls-1" x="19.31" y="14.31" width="2" height="2"/></g></g></g></g></svg>