<svg id="Layer_1" data-name="Layer 1" xmlns="http://www.w3.org/2000/svg" viewBox="0 0 18.63 28.66"><defs><style>.cls-1{fill:#00c58f;}</style></defs><title>Dj-Style</title><path id="Path_2129" data-name="Path 2129" class="cls-1" d="M5.08,7.36a1.4,1.4,0,0,0,1-.39,3.18,3.18,0,0,0,4.4,1,3.25,3.25,0,0,0,1-1,1.41,1.41,0,0,0,2,0,1.38,1.38,0,0,0,.4-1V4.55a1.42,1.42,0,0,0-.72-1.23A4.75,4.75,0,0,0,6.81.91,4.69,4.69,0,0,0,4.4,3.32a1.41,1.41,0,0,0-.73,1.23V6A1.41,1.41,0,0,0,5.08,7.36ZM11.92,6V4.55a.47.47,0,0,1,.49-.45.48.48,0,0,1,.45.45V6a.49.49,0,0,1-.5.45A.47.47,0,0,1,11.92,6ZM8.73,7.5A2.25,2.25,0,1,1,11,5.21v.08A2.25,2.25,0,0,1,8.73,7.5ZM5.55,6a.47.47,0,0,1-.49.45A.46.46,0,0,1,4.61,6V4.55A.47.47,0,0,1,5.1,4.1a.48.48,0,0,1,.45.45ZM8.73,1.44A3.76,3.76,0,0,1,12,3.21a1.49,1.49,0,0,0-.54.32,3.18,3.18,0,0,0-5.36,0,1.41,1.41,0,0,0-.54-.32A3.78,3.78,0,0,1,8.73,1.44Z"/><path id="Path_2130" data-name="Path 2130" class="cls-1" d="M17.73,15.28H11.84V11.1H12a5.93,5.93,0,0,0,5.88-5.28.47.47,0,0,0-.45-.49.47.47,0,0,0-.48.39,5,5,0,0,1-5.15,4.44,1.52,1.52,0,0,0-1.46-1.08H7.15a1.51,1.51,0,0,0-1.49,1.23,5.91,5.91,0,0,0-3,5H-.26a.47.47,0,0,0-.47.47v2.34a.47.47,0,0,0,.47.47H.52v9A.46.46,0,0,0,1,28a.46.46,0,0,0,.45-.44V22.9H6.64l.2,3.8-1.34.45a.47.47,0,0,0,.26.9h0l1.68-.56A.47.47,0,0,0,7.8,27L7.58,22.9h2.3L9.67,27a.46.46,0,0,0,.32.47l1.68.55a.47.47,0,1,0,.33-.88h0l-1.34-.43.2-3.81H16v4.7a.47.47,0,0,0,.93,0v-9h.79a.47.47,0,0,0,.47-.46V15.75A.47.47,0,0,0,17.73,15.28Zm-.47,2.34H4.75a.47.47,0,1,0,0,.93H16V22H1.46V18.55H2.87a.46.46,0,0,0,.49-.44.47.47,0,0,0-.45-.49H.21v-1.4H17.26Zm-6.36-7h0v4.68H6.57V10.6A.6.6,0,0,1,7.15,10h3.16a.6.6,0,0,1,.59.59Zm-5.27.83v3.85H3.56a5,5,0,0,1,2.07-3.85Z"/></svg>