<svg id="Layer_1" data-name="Layer 1" xmlns="http://www.w3.org/2000/svg" viewBox="0 0 24.72 24.36"><defs><style>.cls-1{fill:#00c58f;}</style></defs><title>track-duration</title><path class="cls-1" d="M23.47,13.89a9.26,9.26,0,0,0-7.2-8.12V4.6a1.56,1.56,0,0,0-.37-3.07H12.6a1.56,1.56,0,0,0-.38,3.07V5.77A9.22,9.22,0,0,0,7.7,8.25a8.28,8.28,0,0,0-.78.89H3.62a.45.45,0,0,0-.44.47.46.46,0,0,0,.44.44H6.3a8.89,8.89,0,0,0-.82,1.77h-5a.45.45,0,0,0-.48.43.45.45,0,0,0,.44.48H5.22A9.53,9.53,0,0,0,5,14.5H3a.45.45,0,0,0-.44.47.46.46,0,0,0,.44.44H5a9.6,9.6,0,0,0,.28,1.77h-3a.44.44,0,0,0-.43.47.46.46,0,0,0,.43.44H5.59A9.24,9.24,0,0,0,13.33,24c.31,0,.61.05.91.05a9.28,9.28,0,0,0,5.06-1.5.45.45,0,0,0-.5-.76,8.36,8.36,0,1,1,2.46-2.47.46.46,0,0,0,.75.53l0,0A9.25,9.25,0,0,0,23.47,13.89ZM12,3.09a.64.64,0,0,1,.64-.64h3.3a.64.64,0,1,1,0,1.28h-3.3A.64.64,0,0,1,12,3.09Zm1.18,2.52v-1h2.22v1A9.16,9.16,0,0,0,13.13,5.61Z"/><path class="cls-1" d="M20.48,20.58A.46.46,0,0,0,20,21a.46.46,0,0,0,.92,0,.45.45,0,0,0-.14-.33A.46.46,0,0,0,20.48,20.58Z"/><path class="cls-1" d="M14.25,7.69a7.12,7.12,0,1,0,7.12,7.12h0A7.14,7.14,0,0,0,14.25,7.69Zm0,13.32a6.2,6.2,0,1,1,6.2-6.2h0A6.21,6.21,0,0,1,14.25,21Z"/><path class="cls-1" d="M17.15,11.26l-2.27,2.27a1.4,1.4,0,0,0-1.26,0l-1-1a.45.45,0,0,0-.64,0,.43.43,0,0,0,0,.63l1,1a1.43,1.43,0,1,0,2.56,1.26,1.46,1.46,0,0,0,0-1.26L17.73,12h0l.07-.06a.46.46,0,0,0,0-.65A.47.47,0,0,0,17.15,11.26Zm-2.9,4.06a.51.51,0,1,1,.51-.51h0a.5.5,0,0,1-.51.5Z"/><path class="cls-1" d="M19.16,14.35h-.43a.47.47,0,0,0-.44.48.46.46,0,0,0,.44.44h.43a.46.46,0,0,0,.43-.48A.46.46,0,0,0,19.16,14.35Z"/><path class="cls-1" d="M9.77,14.34H9.35a.46.46,0,0,0-.48.44.45.45,0,0,0,.43.48h.47a.46.46,0,1,0,0-.92Z"/><path class="cls-1" d="M14.26,10.79a.47.47,0,0,0,.46-.46h0V9.9a.46.46,0,0,0-.92,0v.43A.46.46,0,0,0,14.26,10.79Z"/><path class="cls-1" d="M14.25,18.83a.45.45,0,0,0-.46.46h0v.42a.45.45,0,0,0,.43.48.45.45,0,0,0,.48-.43v-.47A.45.45,0,0,0,14.25,18.83Z"/><path class="cls-1" d="M.49,17.18a.45.45,0,0,0-.46.46.46.46,0,0,0,.46.46A.43.43,0,0,0,.81,18a.46.46,0,0,0-.32-.78Z"/></svg>