<svg id="Layer_1" data-name="Layer 1" xmlns="http://www.w3.org/2000/svg" viewBox="0 0 17 17"><defs><style>.cls-1{fill:#ff6243;}.cls-2{fill:#231f20;}</style></defs><title>error</title><g id="Group_628" data-name="Group 628"><path id="Path_2084" data-name="Path 2084" class="cls-1" d="M8.5,0A8.5,8.5,0,1,0,17,8.5,8.51,8.51,0,0,0,8.5,0Zm3.81,12.31L8.5,8.5,4.69,12.31,8.5,8.5,4.69,4.69,8.5,8.5l3.81-3.81L8.5,8.5Z"/><path id="Path_2086" data-name="Path 2086" class="cls-2" d="M12.51,4.49a.28.28,0,0,0-.4,0L8.5,8.1,4.89,4.49a.28.28,0,1,0-.41.39h0L8.1,8.5,4.49,12.1a.28.28,0,0,0,0,.4.28.28,0,0,0,.4,0v0L8.5,8.9l3.61,3.6a.28.28,0,0,0,.4,0,.29.29,0,0,0,0-.39L8.9,8.5l3.61-3.61A.28.28,0,0,0,12.51,4.49Z"/></g></svg>