<svg id="Layer_1" data-name="Layer 1" xmlns="http://www.w3.org/2000/svg" viewBox="0 0 19.22 19.22"><defs><style>.cls-1{fill:#2699fb;}.cls-2{fill:#fff;}</style></defs><title>facebook</title><g id="Group_625" data-name="Group 625"><path id="Path_2048" data-name="Path 2048" class="cls-1" d="M18.16,0H1.06A1.06,1.06,0,0,0,0,1.06v17.1a1.06,1.06,0,0,0,1.06,1.06h17.1a1.05,1.05,0,0,0,1.06-1.06h0V1.06A1.05,1.05,0,0,0,18.16,0Z"/><path id="Path_2049" data-name="Path 2049" class="cls-2" d="M13.27,19.22V11.79h2.51l.37-2.91H13.27V7c0-.84.23-1.41,1.44-1.41h1.53V3A21.15,21.15,0,0,0,14,2.9a3.5,3.5,0,0,0-3.74,3.25,2.92,2.92,0,0,0,0,.59V8.88H7.77v2.91h2.5v7.43Z"/></g></svg>