<svg id="Layer_1" data-name="Layer 1" xmlns="http://www.w3.org/2000/svg" viewBox="0 0 20.06 22.38"><defs><style>.cls-1{fill:#00c58f;}</style></defs><title>included</title><g id="Group_639" data-name="Group 639"><g id="Group_365" data-name="Group 365"><path id="Path_2145" data-name="Path 2145" class="cls-1" d="M14.24,9.61a.87.87,0,0,0-.87-.87h-9a.88.88,0,0,0,0,1.75h9a.87.87,0,0,0,.87-.88Z"/><path id="Path_2146" data-name="Path 2146" class="cls-1" d="M4.37,12.23a.88.88,0,0,0-.88.88.87.87,0,0,0,.87.87H9.84a.88.88,0,0,0,0-1.75H4.37Z"/><path id="Path_2147" data-name="Path 2147" class="cls-1" d="M6.42,20.63H3.5a1.76,1.76,0,0,1-1.75-1.75V3.5A1.76,1.76,0,0,1,3.5,1.75H14.25A1.75,1.75,0,0,1,16,3.5V8.87a.88.88,0,1,0,1.75,0V3.5A3.5,3.5,0,0,0,14.24,0H3.5A3.5,3.5,0,0,0,0,3.5V18.88a3.5,3.5,0,0,0,3.5,3.5H6.42a.88.88,0,1,0,0-1.75Z"/><path id="Path_2148" data-name="Path 2148" class="cls-1" d="M19.29,12.65a2.63,2.63,0,0,0-3.71,0l-4.8,4.79a.87.87,0,0,0-.22.37l-1,3.44a.86.86,0,0,0,.57,1.09.94.94,0,0,0,.5,0l3.52-1a.94.94,0,0,0,.39-.22l4.79-4.78a2.64,2.64,0,0,0,0-3.72Zm-5.86,7.09-1.78.49.52-1.71,3.24-3.23,1.24,1.24Zm4.62-4.61-.17.17-1.23-1.24.17-.17a.87.87,0,0,1,1.23,1.24Z"/><path id="Path_2149" data-name="Path 2149" class="cls-1" d="M13.37,5.24h-9A.88.88,0,0,0,4.37,7h9a.88.88,0,0,0,0-1.75Z"/></g></g></svg>