<?xml version="1.0" encoding="utf-8"?>
<!-- Generator: Adobe Illustrator 23.0.2, SVG Export Plug-In . SVG Version: 6.00 Build 0)  -->
<svg version="1.1" id="Layer_1" xmlns="http://www.w3.org/2000/svg" xmlns:xlink="http://www.w3.org/1999/xlink" x="0px" y="0px"
	 viewBox="0 0 25 25" style="enable-background:new 0 0 25 25;" xml:space="preserve">
<style type="text/css">
	.st0{fill:none;}
	.st1{fill:#FFFFFF;}
</style>
<g>
	<rect y="0" class="st0" width="25" height="25"/>
	<path id="Path_2471" class="st1" d="M12.5,0.5c3.3,0,3.7,0,5,0.1c1,0,2,0.2,2.9,0.6c0.8,0.3,1.5,0.8,2.1,1.4
		c0.6,0.6,1.1,1.3,1.4,2.1c0.3,0.9,0.5,1.9,0.6,2.9c0.1,1.3,0.1,1.7,0.1,5s0,3.7-0.1,5c0,1-0.2,2-0.6,2.9c-0.6,1.6-1.9,2.9-3.5,3.5
		c-0.9,0.3-1.9,0.5-2.9,0.6c-1.3,0.1-1.7,0.1-5,0.1s-3.7,0-5-0.1c-1,0-2-0.2-2.9-0.6C3,23.3,1.7,22,1.1,20.4
		c-0.4-0.9-0.5-1.9-0.6-2.9c-0.1-1.3-0.1-1.7-0.1-5s0-3.7,0.1-5c0-1,0.2-2,0.6-2.9c0.3-0.8,0.8-1.5,1.4-2.1c0.6-0.6,1.3-1.1,2.1-1.4
		c0.9-0.4,1.9-0.5,2.9-0.6C8.9,0.5,9.3,0.5,12.5,0.5z M12.5,6.5c-3.3,0-6,2.7-6,6s2.7,6,6,6s6-2.7,6-6l0,0
		C18.6,9.2,15.9,6.5,12.5,6.5z M20.4,6.2c0-0.8-0.7-1.5-1.5-1.5c-0.8,0-1.5,0.7-1.5,1.5s0.7,1.5,1.5,1.5l0,0
		C19.7,7.7,20.4,7,20.4,6.2C20.4,6.2,20.4,6.2,20.4,6.2L20.4,6.2z M12.5,8.9c2,0,3.6,1.6,3.6,3.6s-1.6,3.6-3.6,3.6s-3.6-1.6-3.6-3.6
		C8.9,10.5,10.5,8.9,12.5,8.9C12.5,8.9,12.5,8.9,12.5,8.9L12.5,8.9z"/>
</g>
</svg>
