<svg id="Layer_1" data-name="Layer 1" xmlns="http://www.w3.org/2000/svg" viewBox="0 0 36.15 24.93"><defs><style>.cls-1{fill:#92dbef;}.cls-2{fill:#202121;opacity:0.15;isolation:isolate;}.cls-3{fill:#263b80;}.cls-4{fill:#232c65;}.cls-5{fill:#139ad6;}</style></defs><title>paypal</title><g id="paypal"><path id="Path_2074" data-name="Path 2074" class="cls-1" d="M36.15,22.8A2.13,2.13,0,0,1,34,24.93H2.14A2.13,2.13,0,0,1,0,22.8H0V2.14A2.14,2.14,0,0,1,2.14,0H34a2.13,2.13,0,0,1,2.13,2.14h0V22.8Z"/><path id="Path_2075" data-name="Path 2075" class="cls-2" d="M1.52,22.8V2.14A2.14,2.14,0,0,1,3.66,0H2.14A2.14,2.14,0,0,0,0,2.14H0V22.8a2.13,2.13,0,0,0,2.14,2.13H3.66A2.13,2.13,0,0,1,1.52,22.8Z"/><path id="Path_2076" data-name="Path 2076" class="cls-3" d="M23.48,4.88c-.8-.91-2.27-1.36-4.3-1.36H13.52a1,1,0,0,0-.8.68L10.46,19a.51.51,0,0,0,.45.56h3.51l.91-5.54v.22a1,1,0,0,1,.79-.68h1.7c3.28,0,5.77-1.35,6.56-5.09V8.16h0a4,4,0,0,0-.9-3.28"/><path id="Path_2077" data-name="Path 2077" class="cls-4" d="M24.38,8.5V8.12a4,4,0,0,0-.53-.3,5.06,5.06,0,0,0-1.72-.34H17a.8.8,0,0,0-.79.7L15.33,14v.23a.94.94,0,0,1,.79-.68h1.7C21.1,13.59,23.59,12.23,24.38,8.5Z"/><path id="Path_2078" data-name="Path 2078" class="cls-5" d="M25.49,9.56a3,3,0,0,0-1.11-1.44V8.5c-.79,3.73-3.28,5.09-6.56,5.09h-1.7a1,1,0,0,0-.8.68v-.09l0,.09-.64,3.9-.23,1.42h0l-.26,1.58a.41.41,0,0,0,.37.45h2.9a.79.79,0,0,0,.8-.68l0-.14h0l.54-3.36a.86.86,0,0,1,.85-.8h.28c2.83,0,5.1-1.13,5.66-4.53A5.25,5.25,0,0,0,25.49,9.56Z"/></g></svg>