<svg id="Layer_1" data-name="Layer 1" xmlns="http://www.w3.org/2000/svg" viewBox="0 0 21.64 21.64"><defs><style>.cls-1{fill:none;}.cls-2{fill:#00c58f;}</style></defs><title>Price</title><rect class="cls-1" x="-377" y="-193.02" width="834" height="261"/><g id="Group_304" data-name="Group 304"><path id="Path_2110" data-name="Path 2110" class="cls-2" d="M18.47,3.17a10.82,10.82,0,0,0-15.3,15.3h0a10.82,10.82,0,0,0,15.3-15.3Zm-7.65,17.2a9.55,9.55,0,1,1,9.55-9.55,9.56,9.56,0,0,1-9.55,9.55Z"/></g><g id="Group_306" data-name="Group 306"><path id="Path_2111" data-name="Path 2111" class="cls-2" d="M11.5,10.18H10.14a1.4,1.4,0,1,1,0-2.8h2.71a.64.64,0,0,0,.61-.66.63.63,0,0,0-.61-.61h-1.4V4.71a.63.63,0,0,0-.63-.63.64.64,0,0,0-.64.63v1.4h0a2.67,2.67,0,1,0,0,5.34H11.5a1.41,1.41,0,0,1,0,2.81H8.78a.63.63,0,0,0-.66.6.64.64,0,0,0,.61.66h1.45v1.4a.64.64,0,0,0,.63.64.64.64,0,0,0,.64-.64v-1.4h0a2.67,2.67,0,0,0,0-5.34Z"/></g></svg>