<svg id="Layer_1" data-name="Layer 1" xmlns="http://www.w3.org/2000/svg" viewBox="0 0 25.65 25.65"><defs><style>.cls-1{fill:#00c58f;}</style></defs><title>add-que</title><g id="Group_638" data-name="Group 638"><g id="Group_351" data-name="Group 351"><circle id="Ellipse_25" data-name="Ellipse 25" class="cls-1" cx="12.83" cy="18.97" r="1.25"/><path id="Path_2137" data-name="Path 2137" class="cls-1" d="M12.83,0A12.83,12.83,0,1,0,25.65,12.83h0A12.81,12.81,0,0,0,12.84,0Zm0,23.65A10.83,10.83,0,1,1,23.65,12.83h0A10.82,10.82,0,0,1,12.84,23.65Z"/><path id="Path_2138" data-name="Path 2138" class="cls-1" d="M12.83,6.44a4,4,0,0,0-4,4,1,1,0,0,0,2,0,2,2,0,1,1,2,2,1,1,0,0,0-1,1V16a1,1,0,0,0,2,0V14.32a4,4,0,0,0-1-7.89Z"/></g></g></svg>