<svg id="Layer_1" data-name="Layer 1" xmlns="http://www.w3.org/2000/svg" viewBox="0 0 15.31 14.4"><defs><style>.cls-2{fill:#ffffff;}</style></defs><title>proccesing</title><g id="refresh" class="cls-1"><g id="Group_168" data-name="Group 168"><path id="Path_2080" data-name="Path 2080" class="cls-2" d="M15,4.12H13.75A6.72,6.72,0,0,0,5,.53,6.61,6.61,0,0,0,1.93,3c-.67,1,.9,1.84,1.56.9a5,5,0,0,1,7-1.15,5.07,5.07,0,0,1,1.27,1.34H10.57a.27.27,0,0,0-.23.12.25.25,0,0,0,0,.33l2.23,3.47a.31.31,0,0,0,.41.11.29.29,0,0,0,.11-.11l2.22-3.48a.3.3,0,0,0-.12-.41A.33.33,0,0,0,15,4.12Z"/><path id="Path_2081" data-name="Path 2081" class="cls-2" d="M11.83,10.46a5,5,0,0,1-8.21-.12H4.75A.27.27,0,0,0,5,10.22a.26.26,0,0,0,0-.33L2.78,6.42a.31.31,0,0,0-.41-.11.29.29,0,0,0-.11.11L0,9.9a.31.31,0,0,0,.11.41.42.42,0,0,0,.15,0H1.61a6.72,6.72,0,0,0,11.78,1C14.06,10.41,12.49,9.51,11.83,10.46Z"/></g></g></svg>