<svg id="Layer_1" data-name="Layer 1" xmlns="http://www.w3.org/2000/svg" viewBox="0 0 26.47 14.89"><defs><style>.cls-1{fill:#ff9800;}</style></defs><title>sound-cloud</title><g id="Group_627" data-name="Group 627"><path id="Path_2066" data-name="Path 2066" class="cls-1" d="M22.33,6.61a4.12,4.12,0,0,0-.86.1A7.46,7.46,0,0,0,14.06,0a.83.83,0,0,0-.83.83V14.06a.83.83,0,0,0,.83.82h8.27a4.13,4.13,0,1,0,0-8.26Z"/><path id="Path_2067" data-name="Path 2067" class="cls-1" d="M10.75,1.65a.83.83,0,0,0-.83.83V14.05a.83.83,0,0,0,1.66,0V2.48a.83.83,0,0,0-.83-.83Z"/><path id="Path_2068" data-name="Path 2068" class="cls-1" d="M7.44,5a.83.83,0,0,0-.82.83v8.27a.83.83,0,1,0,1.65,0V5.79A.83.83,0,0,0,7.45,5Z"/><path id="Path_2069" data-name="Path 2069" class="cls-1" d="M4.13,5a.83.83,0,0,0-.82.83v8.27a.83.83,0,1,0,1.65,0V5.79A.83.83,0,0,0,4.14,5Z"/><path id="Path_2070" data-name="Path 2070" class="cls-1" d="M.83,7.44A.83.83,0,0,0,0,8.27v5a.83.83,0,1,0,1.65,0v-5A.83.83,0,0,0,.83,7.44Z"/></g></svg>