<svg id="Layer_1" data-name="Layer 1" xmlns="http://www.w3.org/2000/svg" viewBox="0 0 24 24"><defs><style>.cls-1{fill:#00c53b;}.cls-2{fill:#212121;}</style></defs><title>spotify</title><g id="Group_626" data-name="Group 626"><circle id="Ellipse_20" data-name="Ellipse 20" class="cls-1" cx="12" cy="12" r="12"/><path id="Path_2071" data-name="Path 2071" class="cls-2" d="M16.87,17.66h0a1,1,0,0,1-.52-.18c-3-1.82-6.53-1.9-10-1.18a2.75,2.75,0,0,1-.57.12A.75.75,0,0,1,5,15.68v0a.76.76,0,0,1,.66-.81c4-.88,8-.8,11.47,1.26a.83.83,0,0,1,.47.8.74.74,0,0,1-.72.75Z"/><path id="Path_2072" data-name="Path 2072" class="cls-2" d="M18.17,14.48h0a1.19,1.19,0,0,1-.6-.2A15.71,15.71,0,0,0,6,12.86a1.87,1.87,0,0,1-.57.12,1,1,0,0,1-.19-1.93A15.76,15.76,0,0,1,10,10.39a16.86,16.86,0,0,1,8.56,2.2,1,1,0,0,1,.55.95.93.93,0,0,1-.93.94Z"/><path id="Path_2073" data-name="Path 2073" class="cls-2" d="M4.55,7a20.56,20.56,0,0,1,5.68-.74,20.43,20.43,0,0,1,9.94,2.32,1.13,1.13,0,0,1,.63,1.09,1.12,1.12,0,0,1-1.11,1.13h0a1.06,1.06,0,0,1-.62-.19C15.6,8.55,9.44,8.06,5.46,9.17a2.61,2.61,0,0,1-.63.13A1.12,1.12,0,0,1,3.71,8.19v0A1.13,1.13,0,0,1,4.55,7Z"/></g></svg>