<svg id="Layer_1" data-name="Layer 1" xmlns="http://www.w3.org/2000/svg" viewBox="0 0 230.92 230.92"><defs><style>.cls-1{fill:none;}.cls-2,.cls-3,.cls-4{fill:#00c58f;}.cls-2{opacity:0.09;}.cls-2,.cls-3{isolation:isolate;}.cls-3{opacity:0.49;}.cls-5{fill:#fafafa;}</style></defs><title>Beats-Uploded</title><rect class="cls-1" x="-504.18" y="-20.18" width="834" height="261"/><path id="Path_2315" data-name="Path 2315" class="cls-2" d="M115.46,0A115.46,115.46,0,1,0,230.92,115.46,115.46,115.46,0,0,0,115.46,0Z"/><path id="Path_2314" data-name="Path 2314" class="cls-3" d="M115.46,24.47a91,91,0,1,0,91,91h0A91.09,91.09,0,0,0,115.46,24.47Z"/><path id="Path_2082-2" data-name="Path 2082-2" class="cls-4" d="M115.46,39.58a75.88,75.88,0,1,0,75.88,75.88h0A76,76,0,0,0,115.46,39.58Z"/><path id="Path_2083-2" data-name="Path 2083-2" class="cls-5" d="M153.92,99.38l-41.1,41.1a6.33,6.33,0,0,1-8.94,0h0L83.33,119.93A6.32,6.32,0,0,1,92.27,111h0l16.08,16.08L145,90.44a6.32,6.32,0,0,1,8.94,8.94Z"/></svg>