<svg id="Layer_1" data-name="Layer 1" xmlns="http://www.w3.org/2000/svg" viewBox="0 0 16.54 23.45"><defs><style>.cls-1,.cls-2{fill:none;}.cls-2{stroke:#00c58f;}</style></defs><title>Track-Name</title><rect class="cls-1" x="-254.5" y="-161.5" width="834" height="261"/><path id="music" class="cls-2" d="M14.78,14.78A9.3,9.3,0,0,0,16,10.67a5.6,5.6,0,0,0-.6-2.84,8,8,0,0,0-3.1-3.06A8.76,8.76,0,0,1,10,2.83l-.11-.15a3.75,3.75,0,0,1-.8-1.43.86.86,0,0,0-1.71.11V16.75A5,5,0,0,0,4.82,16C2.44,16,.5,17.59.5,19.5S2.44,23,4.82,23,9.13,21.4,9.13,19.5V9.43a6.2,6.2,0,0,1,4,4.71,5,5,0,0,1-.33.47.86.86,0,1,0,1.3,1.14,6.9,6.9,0,0,0,.64-.89S14.77,14.81,14.78,14.78Z"/></svg>