<?xml version="1.0" encoding="utf-8"?>
<!-- Generator: Adobe Illustrator 23.0.2, SVG Export Plug-In . SVG Version: 6.00 Build 0)  -->
<svg version="1.1" id="Layer_1" xmlns="http://www.w3.org/2000/svg" xmlns:xlink="http://www.w3.org/1999/xlink" x="0px" y="0px"
	 viewBox="0 0 25 25" style="enable-background:new 0 0 25 25;" xml:space="preserve">
<style type="text/css">
	.st0{fill:none;}
	.st1{fill:#FFFFFF;}
</style>
<rect y="0" class="st0" width="25" height="25"/>
<path id="Path_2472" class="st1" d="M24.3,5.7c-0.9,0.4-1.8,0.6-2.7,0.8c1-0.6,1.7-1.5,2.1-2.6c-0.9,0.6-2,0.9-3,1.2
	c-1.8-1.9-4.8-2-6.8-0.2c-1.3,1.2-1.8,2.9-1.4,4.6c-3.8-0.2-7.4-2-9.8-5c-1.3,2.2-0.6,5,1.5,6.4c-0.8,0-1.5-0.2-2.2-0.6v0.1
	c0,2.3,1.6,4.2,3.8,4.7c-0.7,0.2-1.4,0.2-2.2,0.1c0.6,1.9,2.4,3.3,4.5,3.3c-2,1.6-4.5,2.3-7.1,2c2.2,1.4,4.7,2.2,7.3,2.1
	c7.5,0.1,13.5-6,13.6-13.4c0-0.1,0-0.1,0-0.2c0-0.2,0-0.4,0-0.6C22.8,7.5,23.6,6.7,24.3,5.7L24.3,5.7z"/>
</svg>
