<?xml version="1.0" encoding="utf-8"?>
<!-- Generator: Adobe Illustrator 23.0.2, SVG Export Plug-In . SVG Version: 6.00 Build 0)  -->
<svg version="1.1" id="Layer_1" xmlns="http://www.w3.org/2000/svg" xmlns:xlink="http://www.w3.org/1999/xlink" x="0px" y="0px"
	 viewBox="0 0 25 25" style="enable-background:new 0 0 25 25;" xml:space="preserve">
<style type="text/css">
	.st0{fill:none;}
	.st1{fill:#FFFFFF;}
</style>
<rect y="0" class="st0" width="25" height="25"/>
<path id="Path_2473" class="st1" d="M24.1,5.3c0.4,2.2,0.6,4.4,0.6,6.6c0,2.2-0.2,4.5-0.6,6.6c-0.3,1.2-1.2,2.1-2.3,2.4
	c-2.1,0.6-9.2,0.6-9.2,0.6s-7.1,0-9.2-0.6c-1.2-0.3-2.1-1.3-2.3-2.4c-0.4-2.2-0.6-4.4-0.6-6.6c0-2.2,0.2-4.5,0.6-6.6
	c0.3-1.2,1.2-2.1,2.3-2.4c2.1-0.6,9.2-0.6,9.2-0.6s7.1,0,9.2,0.6C22.9,3.2,23.8,4.1,24.1,5.3z M10.2,16.2l7.3-4.2l-7.3-4.2V16.2z"/>
</svg>
